<svg width="85" height="87" viewBox="0 0 85 87" fill="none" xmlns="http://www.w3.org/2000/svg">
    <path d="M82.79 40.194C82.79 40.107 82.79 40.107 82.705 40.02L82.62 39.933L82.535 39.846L45.475 7.221C45.39 7.221 45.39 7.134 45.305 7.134L45.135 7.047H44.965C44.88 7.047 44.88 7.047 44.795 7.047H44.625L44.455 7.134L2.55 31.842C2.465 31.842 2.465 31.929 2.465 31.929L2.38 32.016C2.38 32.103 2.295 32.103 2.295 32.19C2.295 32.19 2.21 32.277 2.21 32.364C2.21 32.451 2.125 32.451 2.125 32.538C2.125 32.625 2.125 32.625 2.125 32.712V32.799C2.125 32.886 2.125 32.973 2.21 32.973C2.295 33.06 2.295 33.147 2.38 33.147L8.33 38.28L9.01 46.719C9.01 46.98 9.18 47.241 9.435 47.415L23.035 56.376C23.205 56.463 23.29 56.55 23.46 56.55C23.545 56.55 23.63 56.55 23.63 56.55L28.22 55.419L28.475 55.68V67.251L21.165 71.34C20.91 71.514 20.74 71.775 20.74 72.123C20.74 72.471 20.91 72.732 21.165 72.906L32.81 79.866C32.895 79.953 33.065 80.04 33.235 80.127C33.405 80.127 33.49 80.127 33.66 80.04L45.22 73.08C45.475 72.906 45.645 72.645 45.645 72.297C45.645 71.949 45.475 71.688 45.22 71.514L39.865 68.469C39.44 68.208 38.93 68.382 38.675 68.817C38.42 69.252 38.59 69.774 39.015 70.035L43.095 72.384L33.15 78.126L23.205 72.123L28.39 69.252V72.123C28.39 72.471 28.56 72.732 28.815 72.906L32.81 75.342H32.895H32.98C33.065 75.342 33.15 75.429 33.235 75.429C33.32 75.429 33.405 75.429 33.49 75.342H33.575H33.66L37.4 72.906C37.655 72.732 37.825 72.471 37.825 72.21V64.989C37.825 64.467 37.485 64.119 36.975 64.119C36.465 64.119 36.125 64.467 36.125 64.989V71.775L34.085 73.08L34 60.639L40.63 66.381C40.715 66.381 40.715 66.468 40.8 66.468H40.885C40.97 66.468 41.055 66.468 41.14 66.468C41.225 66.468 41.395 66.468 41.48 66.381H41.65L52.87 59.508L60.095 63.858C60.265 63.945 60.35 63.945 60.52 63.945C60.69 63.945 60.775 63.945 60.945 63.858L72.59 56.985C73.015 56.724 73.1 56.202 72.93 55.767C72.845 55.593 72.76 55.506 72.59 55.419L67.235 52.374C66.81 52.113 66.3 52.287 66.045 52.722C65.79 53.157 65.96 53.679 66.385 53.94L70.38 56.289L60.52 62.118L54.485 58.551L56.695 57.159L60.18 59.247H60.35C60.435 59.247 60.52 59.334 60.605 59.334C60.69 59.334 60.775 59.334 60.86 59.247H60.945H61.03L64.77 56.811C65.025 56.637 65.195 56.376 65.195 56.028V51.852L82.45 41.238L82.535 41.151C82.535 41.151 82.62 41.151 82.62 41.064C82.62 40.977 82.705 40.977 82.705 40.89C82.705 40.803 82.79 40.803 82.79 40.716C82.79 40.629 82.79 40.629 82.79 40.542C82.79 40.455 82.79 40.455 82.79 40.368C82.875 40.281 82.875 40.194 82.79 40.194ZM73.185 33.756L66.555 37.845L60.435 32.538L67.15 28.449L73.185 33.756ZM44.625 30.972L51.34 26.97L57.46 32.277L50.745 36.366L44.625 30.972ZM49.215 37.236L42.5 41.325L36.38 35.931L43.095 31.929L49.215 37.236ZM43.265 29.754L37.145 24.447L43.945 20.445L50.065 25.752L43.265 29.754ZM41.735 30.711L35.02 34.8L28.815 29.406L35.615 25.404L41.735 30.711ZM33.405 35.67L26.69 39.759L20.4 34.365L27.2 30.363L33.405 35.67ZM25.075 40.629L18.36 44.718L12.07 39.324L18.87 35.322L25.075 40.629ZM26.52 41.847L32.725 47.241L26.01 51.33L19.72 45.936L26.52 41.847ZM28.05 40.89L34.765 36.801L40.97 42.195L34.255 46.284L28.05 40.89ZM42.33 43.413L48.535 48.807L41.905 52.896L35.7 47.502L42.33 43.413ZM43.945 42.456L50.66 38.367L56.78 43.761L50.15 47.85L43.945 42.456ZM52.19 37.497L58.905 33.408L65.025 38.715L58.395 42.804L52.19 37.497ZM65.705 27.231L59.075 31.32L52.955 26.013L59.67 21.924L65.705 27.231ZM58.31 20.706L51.595 24.708L45.475 19.401L52.275 15.399L58.31 20.706ZM44.795 8.961L50.83 14.268L44.03 18.27L37.91 12.963L44.795 8.961ZM36.38 13.92L42.5 19.227L35.7 23.229L29.58 17.922L36.38 13.92ZM28.05 18.792L34.17 24.186L27.37 28.188L21.25 22.794L28.05 18.792ZM19.635 23.751L25.84 29.145L19.04 33.147L12.75 27.753L19.635 23.751ZM4.42 32.712L11.22 28.71L17.425 34.104L10.625 38.106L9.605 37.236L4.42 32.712ZM23.545 54.81L10.71 46.284L10.2 39.933L26.605 54.027L23.545 54.81ZM30.175 71.601V57.072L32.385 58.986L32.47 72.906L30.175 71.601ZM33.66 57.855L27.37 52.461L34.085 48.372L40.375 53.766L33.66 57.855ZM41.395 64.467L35.105 59.073L41.735 54.984L48.025 60.378L41.395 64.467ZM49.555 59.421L43.35 54.027L49.98 49.938L56.185 55.332L49.555 59.421ZM59.84 56.811L58.48 55.941L59.84 55.071V56.811ZM63.58 55.419L61.455 56.724V54.027L63.58 52.722V55.419ZM57.715 54.375L51.51 48.981L58.14 44.892L64.26 50.286L57.715 54.375ZM65.875 49.416L59.755 44.022L66.385 39.933L72.505 45.24L65.875 49.416ZM74.035 44.37L67.915 39.063L74.545 34.974L80.58 40.281L74.035 44.37Z" fill="#F1EFE5"/>
</svg>
