<svg width="100" height="100" viewBox="0 0 100 100" fill="none" xmlns="http://www.w3.org/2000/svg">
<circle cx="50" cy="50" r="50" fill="#5F74E4"/>
<ellipse cx="75.7712" cy="41.5053" rx="5.33675" ry="4.94143" stroke="#F1EFE5" stroke-width="1.5"/>
<path d="M75.7711 33.2695V34.0931" stroke="#F1EFE5" stroke-width="1.5" stroke-linecap="round"/>
<path d="M75.7711 48.9175V49.7411" stroke="#F1EFE5" stroke-width="1.5" stroke-linecap="round"/>
<path d="M84.6658 41.5052L83.7763 41.5052" stroke="#F1EFE5" stroke-width="1.5" stroke-linecap="round"/>
<path d="M67.766 41.5052L66.8765 41.5052" stroke="#F1EFE5" stroke-width="1.5" stroke-linecap="round"/>
<path d="M82.0603 35.682L81.7109 36.0055" stroke="#F1EFE5" stroke-width="1.5" stroke-linecap="round"/>
<path d="M69.8312 47.0052L69.4818 47.3288" stroke="#F1EFE5" stroke-width="1.5" stroke-linecap="round"/>
<path d="M82.0603 47.3286L81.7109 47.0051" stroke="#F1EFE5" stroke-width="1.5" stroke-linecap="round"/>
<path d="M69.8312 36.0052L69.4818 35.6817" stroke="#F1EFE5" stroke-width="1.5" stroke-linecap="round"/>
<g clip-path="url(#clip0_156_335)" filter="url(#filter0_d_156_335)">
<g filter="url(#filter1_d_156_335)">
<path d="M58.1222 32.3367C58.1696 32.3612 58.1696 32.3612 58.1975 32.4236L58.2254 32.4861L58.2532 32.5485L67.5141 58.2717C67.4946 58.3097 67.5419 58.3342 67.5224 58.3721L67.5308 58.4725L67.4918 58.5484C67.4723 58.5863 67.4723 58.5863 67.4528 58.6243L67.4138 58.7001L67.3274 58.7516L44.2567 70.5077C44.2372 70.5456 44.1899 70.5211 44.1899 70.5211L44.123 70.5346C44.0756 70.5101 44.0561 70.5481 44.0087 70.5236C44.0087 70.5236 43.9418 70.5371 43.8945 70.5126C43.8471 70.4881 43.8276 70.5261 43.7802 70.5016C43.7328 70.4771 43.7328 70.4771 43.6855 70.4526L43.6381 70.4281C43.5907 70.4037 43.5433 70.3792 43.5629 70.3412C43.535 70.2788 43.4876 70.2543 43.5071 70.2164L42.0774 66.1161L37.6382 63.4383C37.496 63.3648 37.3929 63.2155 37.3567 63.0527L35.5981 54.4602C35.5897 54.3599 35.5618 54.2974 35.6009 54.2216C35.6204 54.1836 35.6399 54.1457 35.6399 54.1457L37.309 52.4148L37.2254 52.2275L30.9246 48.9721L27.0206 51.0851C26.8673 51.15 26.6862 51.1524 26.4967 51.0545C26.3072 50.9566 26.2041 50.8073 26.1678 50.6445L25.0502 43.4877C25.0223 43.4253 25.0139 43.325 25.0056 43.2246C25.0446 43.1487 25.0641 43.1107 25.1505 43.0593L31.5932 39.8568C31.7465 39.7919 31.9276 39.7894 32.1171 39.8873C32.3066 39.9852 32.4097 40.1346 32.4459 40.2974L32.8752 43.5447C32.9198 43.8078 32.708 43.9865 32.4126 43.978C32.1172 43.9694 31.872 43.7467 31.8274 43.4835L31.4846 41.0013L26.0757 43.8255L27.0623 49.9541L29.8155 48.4471L28.2522 47.6394C28.0627 47.5415 27.9596 47.3921 27.9233 47.2293L27.5136 44.7605L27.5331 44.7226L27.5526 44.6846C27.5722 44.6467 27.5443 44.5843 27.5638 44.5463C27.5833 44.5084 27.6028 44.4704 27.6697 44.457L27.6892 44.419L27.7087 44.3811L29.8934 43.3968C30.0467 43.3319 30.2278 43.3294 30.3699 43.4029L34.302 45.4344C34.5863 45.5813 34.6977 45.831 34.5807 46.0587C34.4637 46.2863 34.1961 46.3402 33.9119 46.1933L30.2167 44.2842L29.038 44.8277L35.793 48.3658L34.1877 43.7906C34.2072 43.7526 34.1598 43.7282 34.1794 43.6902L34.1989 43.6523C34.2184 43.6143 34.2379 43.5764 34.2574 43.5384C34.2769 43.5005 34.3159 43.4246 34.3828 43.4111L34.4218 43.3352L40.7391 40.26L40.0284 35.8107C40.02 35.7104 40.0395 35.6724 40.0785 35.5965C40.1176 35.5206 40.1371 35.4827 40.2234 35.4313L46.6383 32.1663C46.878 32.05 47.1817 32.1589 47.3796 32.3572C47.4548 32.4441 47.4827 32.5065 47.491 32.6069L47.9203 35.8542C47.9649 36.1173 47.7531 36.296 47.4577 36.2875C47.1623 36.279 46.9171 36.0562 46.8725 35.793L46.5102 33.3487L41.0734 36.1105L41.6308 39.8082L42.896 39.2133L42.5587 37.07L42.5977 36.9942C42.6173 36.9562 42.5894 36.8938 42.6089 36.8558C42.6284 36.8179 42.6479 36.7799 42.7148 36.7665L42.7343 36.7285L42.7538 36.6906L44.9385 35.7063C45.0918 35.6414 45.2729 35.6389 45.4624 35.7369L47.7364 36.9117L57.4757 32.1948L57.5426 32.1813C57.5426 32.1813 57.5621 32.1434 57.6095 32.1679C57.6569 32.1923 57.6764 32.1544 57.7237 32.1789C57.7711 32.2034 57.7906 32.1654 57.838 32.1899C57.8854 32.2144 57.8854 32.2144 57.9327 32.2388C57.9801 32.2633 57.9801 32.2633 58.0275 32.2878C58.0944 32.2743 58.1417 32.2988 58.1222 32.3367ZM59.4238 38.4359L55.6757 40.2453L57.1612 44.4705L60.9287 42.6232L59.4238 38.4359ZM54.3858 51.9691L58.106 50.0973L56.6206 45.8721L52.853 47.7194L54.3858 51.9691ZM52.0282 48.1577L48.2606 50.005L49.7934 54.2547L53.5136 52.3829L52.0282 48.1577ZM54.737 52.9189L56.2224 57.1441L59.9621 55.2343L58.4767 51.0091L54.737 52.9189ZM53.8648 53.3327L50.0972 55.18L51.6105 59.4676L55.3502 57.5579L53.8648 53.3327ZM49.2529 55.6562L45.4853 57.5036L46.9791 61.8291L50.7188 59.9194L49.2529 55.6562ZM44.641 57.9798L40.8734 59.8271L42.3672 64.1527L46.1069 62.2429L44.641 57.9798ZM44.3093 56.992L42.796 52.7044L39.0285 54.5518L40.5223 58.8773L44.3093 56.992ZM45.1815 56.5782L48.9491 54.7309L47.4358 50.4433L43.6683 52.2906L45.1815 56.5782ZM47.0847 49.4935L45.5714 45.2059L41.8233 47.0153L43.3366 51.3029L47.0847 49.4935ZM47.9764 49.0417L51.7439 47.1944L50.2111 42.9447L46.4631 44.7541L47.9764 49.0417ZM52.5688 46.7561L56.3363 44.9088L54.8509 40.6836L51.1029 42.493L52.5688 46.7561ZM61.2604 43.6109L57.5123 45.4203L58.9977 49.6455L62.7653 47.7982L61.2604 43.6109ZM63.1164 48.748L59.3963 50.6198L60.8817 54.845L64.6214 52.9352L63.1164 48.748ZM66.4105 58.0858L64.9056 53.8985L61.1659 55.8083L62.6514 60.0335L66.4105 58.0858ZM61.7791 60.4473L60.2937 56.2221L56.554 58.1318L58.0395 62.357L61.7791 60.4473ZM57.2146 62.7953L55.6818 58.5456L51.9421 60.4554L53.4749 64.7051L57.2146 62.7953ZM52.5832 65.1568L51.0699 60.8692L47.3302 62.779L48.824 67.1045L52.5832 65.1568ZM44.2121 69.4281L47.9518 67.5183L46.4385 63.2307L42.6988 65.1405L42.9385 65.8406L44.2121 69.4281ZM36.5678 54.6731L38.2652 62.8017L41.6064 64.8162L37.6964 53.5274L36.5678 54.6731ZM28.9461 46.9894L36.8576 51.0769L36.3225 49.5519L28.7621 45.5977L28.9461 46.9894ZM37.2309 49.3009L38.7247 53.6264L42.4923 51.7791L40.9985 47.4535L37.2309 49.3009ZM35.4055 43.9875L36.8993 48.3131L40.6473 46.5037L39.1535 42.1781L35.4055 43.9875ZM40.0258 41.7644L41.5391 46.052L45.2871 44.2426L43.7738 39.955L40.0258 41.7644ZM43.8072 37.9072L43.9688 38.7591L44.7547 38.3967L43.8072 37.9072ZM45.4234 36.6292L44.2252 37.2107L45.6938 37.9694L46.892 37.3879L45.4234 36.6292ZM44.646 39.5412L46.1593 43.8288L49.9074 42.0194L48.3746 37.7697L44.646 39.5412ZM49.2189 37.2935L50.7517 41.5432L54.4998 39.7338L53.0143 35.5086L49.2189 37.2935ZM53.8392 35.0703L55.3246 39.2955L59.0726 37.4861L57.5677 33.2989L53.8392 35.0703Z" fill="#F1EFE5"/>
</g>
</g>
<defs>
<filter id="filter0_d_156_335" x="9.63635" y="18.1818" width="74.88" height="70.4227" filterUnits="userSpaceOnUse" color-interpolation-filters="sRGB">
<feFlood flood-opacity="0" result="BackgroundImageFix"/>
<feColorMatrix in="SourceAlpha" type="matrix" values="0 0 0 0 0 0 0 0 0 0 0 0 0 0 0 0 0 0 127 0" result="hardAlpha"/>
<feOffset dy="4"/>
<feGaussianBlur stdDeviation="2"/>
<feComposite in2="hardAlpha" operator="out"/>
<feColorMatrix type="matrix" values="0 0 0 0 0 0 0 0 0 0 0 0 0 0 0 0 0 0 0.25 0"/>
<feBlend mode="normal" in2="BackgroundImageFix" result="effect1_dropShadow_156_335"/>
<feBlend mode="normal" in="SourceGraphic" in2="effect1_dropShadow_156_335" result="shape"/>
</filter>
<filter id="filter1_d_156_335" x="21.0056" y="32.1185" width="50.5251" height="46.416" filterUnits="userSpaceOnUse" color-interpolation-filters="sRGB">
<feFlood flood-opacity="0" result="BackgroundImageFix"/>
<feColorMatrix in="SourceAlpha" type="matrix" values="0 0 0 0 0 0 0 0 0 0 0 0 0 0 0 0 0 0 127 0" result="hardAlpha"/>
<feOffset dy="4"/>
<feGaussianBlur stdDeviation="2"/>
<feComposite in2="hardAlpha" operator="out"/>
<feColorMatrix type="matrix" values="0 0 0 0 0 0 0 0 0 0 0 0 0 0 0 0 0 0 0.25 0"/>
<feBlend mode="normal" in2="BackgroundImageFix" result="effect1_dropShadow_156_335"/>
<feBlend mode="normal" in="SourceGraphic" in2="effect1_dropShadow_156_335" result="shape"/>
</filter>
<clipPath id="clip0_156_335">
<rect width="42.666" height="53.3238" fill="white" transform="matrix(0.457174 -0.889377 -0.888427 -0.459018 61.0106 80.6045)"/>
</clipPath>
</defs>
</svg>
