<svg width="24" height="24" viewBox="0 0 24 24" fill="none" xmlns="http://www.w3.org/2000/svg">
<path d="M15.8827 5.40811C15.7452 4.87322 15.2001 4.55112 14.6652 4.68866L5.94875 6.93003C5.41387 7.06757 5.09176 7.61268 5.2293 8.14756C5.36684 8.68244 5.91195 9.00455 6.44684 8.86701L14.1948 6.87468L16.1871 14.6226C16.3246 15.1575 16.8698 15.4796 17.4046 15.3421C17.9395 15.2045 18.2616 14.6594 18.1241 14.1245L15.8827 5.40811ZM9.08944 17.4802L15.7752 6.16588L14.0533 5.14842L7.36759 16.4627L9.08944 17.4802Z" fill="#F1EFE5"/>
<path d="M23.5 11.5714C23.5 17.669 18.3686 22.6429 12 22.6429C5.63143 22.6429 0.5 17.669 0.5 11.5714C0.5 5.47383 5.63143 0.5 12 0.5C18.3686 0.5 23.5 5.47383 23.5 11.5714Z" stroke="#F1EFE5"/>
</svg>
