<svg width="100" height="100" viewBox="0 0 100 100" fill="none" xmlns="http://www.w3.org/2000/svg">
<circle cx="50" cy="50" r="50" fill="#56C2B5"/>
<path d="M65.2435 31.3305C65.3722 28.6276 56.3026 25.9655 44.9859 25.3845C33.6693 24.8035 24.391 26.5237 24.2623 29.2266M65.2435 31.3305C65.1855 32.549 63.2678 33.5678 60.1422 34.2661M65.2435 31.3305L65.2435 53.1645C65.2435 53.1645 62.8146 55.8081 60.1422 56.2637M24.2623 29.2266C24.1336 31.9295 33.2033 34.5916 44.5199 35.1725C50.7347 35.4916 56.3347 35.1167 60.1422 34.2661M24.2623 29.2266C24.2623 29.2266 24.2623 46.9851 24.2623 50.8879C24.2623 54.7907 49.6495 58.0525 60.1422 56.2637M60.1422 56.2637C60.1422 48.2954 60.1422 34.2661 60.1422 34.2661M35.7114 29.2266L50.5891 30.398C50.5891 30.398 48.7098 20.8036 43.2285 20.9662C37.7473 21.1289 35.7114 29.2266 35.7114 29.2266Z" stroke="#F1EFE5"/>
<path d="M60.5577 77.8339C49.8672 79.6125 23.9947 76.3258 23.9912 72.4228C23.9876 68.5198 23.9716 50.7605 23.9716 50.7605C23.8429 53.4634 33.0872 56.1345 44.6194 56.7265C50.9526 57.0516 56.6587 56.6822 60.5378 55.8352M60.5577 77.8339C60.5505 69.8652 60.5378 55.8352 60.5378 55.8352M60.5577 77.8339C63.2805 77.3808 65.7531 74.7395 65.7531 74.7395L65.7334 52.9045C65.6753 54.123 63.7222 55.14 60.5378 55.8352" stroke="#F1EFE5"/>
<path d="M71.8865 38.766L73.5457 31.6451L77.1962 29.209L75.205 34.2686L78.0258 32.3946L71.8865 45.3247L73.5457 37.4542L71.8865 38.766Z" stroke="#F1EFE5"/>
</svg>
