<svg width="142" height="67" viewBox="0 0 142 67" fill="none" xmlns="http://www.w3.org/2000/svg">
<path opacity="0.93" d="M0.963379 12.574H10.0819L23.5855 48.9384L36.9877 12.574H46.0112V55.5901H39.9596V30.1778C39.9596 29.2976 39.9596 27.8453 40.0293 25.8082C40.099 23.7712 40.0927 21.6022 40.0927 19.276L26.6842 55.5901H20.3854L6.88188 19.2823V20.6026C6.88188 21.6588 6.88188 23.262 6.96426 25.4247C7.04664 27.5875 7.0403 29.197 7.0403 30.184V55.5901H0.963379V12.574Z" fill="#F1EFE5"/>
<path opacity="0.93" d="M94.4173 18.6977C97.5265 22.5077 99.0833 27.3823 99.0875 33.3214C99.0875 39.7468 97.3069 45.0887 93.7456 49.3472C89.5634 54.3517 83.6005 56.8518 75.857 56.8476C68.629 56.8476 62.9449 54.6597 58.8049 50.2839C55.1169 46.0632 53.2729 40.7297 53.2729 34.2834C53.2729 28.4699 54.8508 23.4885 58.0065 19.339C62.0535 14.0243 68.0481 11.3691 75.9901 11.3733C84.2701 11.3733 90.4125 13.8148 94.4173 18.6977ZM88.7966 46.1093C91.3272 42.3559 92.6405 37.9245 92.5607 33.4095C92.5607 28.3505 91.1159 24.2764 88.2263 21.1874C85.3368 18.0984 81.3848 16.5559 76.3703 16.5601C71.5122 16.5601 67.5454 18.0879 64.4699 21.1434C61.3945 24.1989 59.8695 28.7067 59.8948 34.6669C59.8948 39.4325 61.2108 43.452 63.8426 46.7255C66.4745 49.9989 70.7454 51.6357 76.6555 51.6357C82.2487 51.6357 86.2957 49.7935 88.7966 46.1093Z" fill="#F1EFE5"/>
<path opacity="0.93" d="M107.274 12.574H141.543V17.8488H113.484V30.8882H139.427V35.8675H113.484V50.4598H142V55.5901H107.274V12.574Z" fill="#F1EFE5"/>
<path d="M77.1943 0.314453V31.492" stroke="#F1EFE5"/>
<path d="M77.1943 36.6472V66.1461" stroke="#F1EFE5"/>
<path d="M77.1434 66.6429C58.0445 66.6429 42.5068 51.6797 42.5068 33.3214C42.5068 14.9632 58.0445 0 77.1434 0C96.2423 0 111.774 14.9444 111.774 33.3214C111.774 51.6985 96.2359 66.6429 77.1434 66.6429ZM77.1434 0.628706C58.393 0.628706 43.1405 15.2901 43.1405 33.3214C43.1405 51.3527 58.393 66.0142 77.1434 66.0142C95.8938 66.0142 111.14 51.3527 111.14 33.3214C111.14 15.2901 95.8874 0.628706 77.1434 0.628706Z" fill="#F1EFE5"/>
<path d="M70.3315 31.5168H84.0506" stroke="#F1EFE5"/>
<path d="M73.4175 36.6096H80.9899" stroke="#F1EFE5"/>
<path d="M84.5132 27.5623V29.7627" stroke="#F1EFE5"/>
<path d="M85.6285 28.6628H83.4043" stroke="#F1EFE5"/>
<path d="M84.4117 38.2568H82.1875" stroke="#F1EFE5"/>
</svg>
