<svg width="284" height="284" viewBox="0 0 284 284" fill="none" xmlns="http://www.w3.org/2000/svg">
<circle cx="142" cy="142" r="94.5" stroke="#CECCC4"/>
<path d="M142 98.6665C118.123 98.6665 98.6667 118.123 98.6667 142C98.6667 165.877 118.123 185.333 142 185.333C165.877 185.333 185.333 165.877 185.333 142C185.333 118.123 165.877 98.6665 142 98.6665ZM156.56 151.967C157.817 153.223 157.817 155.303 156.56 156.56C155.91 157.21 155.087 157.513 154.263 157.513C153.44 157.513 152.617 157.21 151.967 156.56L142 146.593L132.033 156.56C131.383 157.21 130.56 157.513 129.737 157.513C128.913 157.513 128.09 157.21 127.44 156.56C126.183 155.303 126.183 153.223 127.44 151.967L137.407 142L127.44 132.033C126.183 130.777 126.183 128.697 127.44 127.44C128.697 126.183 130.777 126.183 132.033 127.44L142 137.407L151.967 127.44C153.223 126.183 155.303 126.183 156.56 127.44C157.817 128.697 157.817 130.777 156.56 132.033L146.593 142L156.56 151.967Z" fill="#3D3D3E"/>
<circle cx="142" cy="142" r="117.5" stroke="#CECCC4"/>
<circle cx="142" cy="142" r="141.5" stroke="#CECCC4"/>
</svg>
