<svg width="100" height="100" viewBox="0 0 100 100" fill="none" xmlns="http://www.w3.org/2000/svg">
<ellipse cx="48.8384" cy="51.3001" rx="38.9864" ry="39.1876" fill="black"/>
<g clip-path="url(#clip0_14_376)">
<path d="M65.9687 65.816H31.7079" stroke="#F1EFE5" stroke-width="1.5" stroke-linecap="round"/>
<path d="M31.7079 47.1581L45.6279 36.1317C47.5048 34.6449 50.1718 34.6449 52.0487 36.1317L65.9687 47.1581" stroke="#F1EFE5" stroke-width="1.5" stroke-linecap="round"/>
<path d="M54.834 37.8291V34.4367C54.834 33.9683 55.2175 33.5886 55.6905 33.5886H59.9731C60.4461 33.5886 60.8296 33.9683 60.8296 34.4367V42.9176" stroke="#F1EFE5" stroke-width="1.5" stroke-linecap="round"/>
<path d="M35.134 65.816V44.6138" stroke="#F1EFE5" stroke-width="1.5" stroke-linecap="round"/>
<path d="M62.5426 65.816V44.6138" stroke="#F1EFE5" stroke-width="1.5" stroke-linecap="round"/>
<path d="M53.9774 65.816V57.3351C53.9774 54.9364 53.9774 53.737 53.2248 52.9918C52.4722 52.2466 51.2609 52.2466 48.8383 52.2466C46.4157 52.2466 45.2044 52.2466 44.4518 52.9918C43.6992 53.737 43.6992 54.9364 43.6992 57.3351V65.816" stroke="#F1EFE5" stroke-width="1.5"/>
<path d="M52.2644 44.6138C52.2644 46.4873 50.7305 48.0061 48.8383 48.0061C46.9461 48.0061 45.4122 46.4873 45.4122 44.6138C45.4122 42.7402 46.9461 41.2214 48.8383 41.2214C50.7305 41.2214 52.2644 42.7402 52.2644 44.6138Z" stroke="#F1EFE5" stroke-width="1.5"/>
<path d="M62.5426 52.5858H67.3948C68.4993 52.5858 69.3948 53.4812 69.3948 54.5858V56.6921C69.3948 57.7966 68.4993 58.6921 67.3948 58.6921H62.5426" stroke="#F1EFE5" stroke-width="2"/>
</g>
<path d="M85.7546 64.5883C93.6221 44.8655 83.9607 22.4127 64.1752 14.4385C44.3898 6.46433 21.9726 15.9885 14.1051 35.7113" stroke="#5F74E4" stroke-width="8"/>
<path d="M14.0536 35.7855C6.29202 55.5506 16.0389 77.937 35.8238 85.7867C55.6088 93.6365 77.9397 83.9772 85.7013 64.212" stroke="#56C2B5" stroke-width="8"/>
<defs>
<clipPath id="clip0_14_376">
<rect x="28.2819" y="28.5001" width="41.1129" height="40.7083" rx="3" fill="white"/>
</clipPath>
</defs>
</svg>
